<svg width="270" height="153" viewBox="0 0 270 153" fill="none" xmlns="http://www.w3.org/2000/svg">
<path d="M109 124.004H270V151.149H109V124.004Z" fill="#FFE459"/>
<path d="M189 17.2744H270V28.3793H189V17.2744Z" fill="#FFE459"/>
<path d="M171 101.177L171.432 51.2057L189.432 51.2651L188.999 101.236L171 101.177Z" fill="#FFE459"/>
<path d="M13.9118 98.8787L80 97.3281C80 108.984 80 117.689 80 129.346H0.000244141L13.9118 98.8787Z" fill="#FFE459"/>
<path d="M0.000244141 129.346L30 69V153H0.000265121L0.000244141 129.346Z" fill="#FFE459"/>
<path d="M0 0H30V69L0.000244141 129.346L0 0Z" fill="#FFE459"/>
<path d="M224.148 53.0914H259.559V129.346H224.148V97.3281V53.0914Z" fill="#FFE459"/>
</svg>
