<svg xmlns="http://www.w3.org/2000/svg" xmlns:xlink="http://www.w3.org/1999/xlink" width="800" zoomAndPan="magnify" viewBox="0 0 600 135.000003" height="180" preserveAspectRatio="xMidYMid meet" version="1.0"><defs><g/><clipPath id="id1"><path d="M 15.605469 31.914062 L 75.894531 31.914062 L 75.894531 92.203125 L 15.605469 92.203125 Z M 15.605469 31.914062 " clip-rule="nonzero"/></clipPath><clipPath id="id2"><path d="M 27.199219 44.734375 L 87.289062 44.734375 L 87.289062 102.21875 L 27.199219 102.21875 Z M 27.199219 44.734375 " clip-rule="nonzero"/></clipPath></defs><g clip-path="url(#id1)"><path fill="#ff7f00" d="M 74.117188 60.792969 L 47.003906 33.675781 C 45.902344 32.589844 44.394531 31.914062 42.738281 31.914062 L 21.636719 31.914062 C 18.304688 31.914062 15.605469 34.613281 15.605469 37.941406 L 15.605469 59.042969 C 15.605469 60.714844 16.285156 62.222656 17.386719 63.308594 L 44.515625 90.4375 C 45.601562 91.523438 47.109375 92.203125 48.765625 92.203125 C 50.421875 92.203125 51.945312 91.523438 53.03125 90.4375 L 74.132812 69.339844 C 75.21875 68.238281 75.894531 66.730469 75.894531 65.074219 C 75.894531 63.398438 75.21875 61.890625 74.117188 60.792969 Z M 26.15625 46.984375 C 23.65625 46.984375 21.636719 44.964844 21.636719 42.464844 C 21.636719 39.960938 23.65625 37.941406 26.15625 37.941406 C 28.660156 37.941406 30.679688 39.960938 30.679688 42.464844 C 30.679688 44.964844 28.660156 46.984375 26.15625 46.984375 Z M 26.15625 46.984375 " fill-opacity="1" fill-rule="nonzero"/></g><g clip-path="url(#id2)"><path fill="#231f20" d="M 28.828125 44.746094 C 28.921875 44.75 29.019531 44.757812 29.109375 44.773438 C 29.109375 44.773438 29.113281 44.773438 29.113281 44.773438 L 38.316406 46.34375 C 38.902344 46.445312 39.390625 46.84375 39.609375 47.398438 C 39.609375 47.398438 39.609375 47.398438 39.609375 47.402344 L 43.878906 58.339844 L 85.546875 59.375 C 86.027344 59.386719 86.476562 59.605469 86.789062 59.964844 C 87.101562 60.324219 87.25 60.804688 87.191406 61.28125 L 84.890625 80.289062 C 84.796875 81.085938 84.136719 81.71875 83.335938 81.78125 L 53.628906 84.140625 L 47.738281 88.765625 C 47.734375 88.773438 47.726562 88.777344 47.71875 88.78125 C 47.714844 88.785156 47.707031 88.789062 47.699219 88.792969 C 47.691406 88.796875 47.683594 88.804688 47.679688 88.808594 C 46.605469 89.609375 46.335938 90.699219 46.488281 91.308594 C 46.574219 91.652344 46.707031 91.90625 47.023438 92.101562 C 47.335938 92.296875 47.878906 92.441406 48.804688 92.386719 C 48.808594 92.386719 48.8125 92.386719 48.816406 92.386719 C 48.84375 92.386719 48.878906 92.386719 48.910156 92.386719 C 48.914062 92.386719 48.917969 92.386719 48.925781 92.386719 L 84.355469 92.488281 L 84.359375 92.488281 C 85.292969 92.484375 86.074219 93.265625 86.070312 94.195312 C 86.066406 95.125 85.28125 95.902344 84.351562 95.886719 L 84.34375 95.886719 L 81.753906 95.882812 C 82.71875 96.496094 83.363281 97.566406 83.363281 98.785156 C 83.363281 100.675781 81.808594 102.226562 79.914062 102.226562 C 78.019531 102.226562 76.464844 100.675781 76.464844 98.785156 C 76.464844 97.558594 77.113281 96.476562 78.085938 95.867188 L 48.910156 95.785156 C 49.960938 96.375 50.675781 97.5 50.675781 98.785156 C 50.675781 100.675781 49.125 102.226562 47.226562 102.226562 C 45.332031 102.226562 43.78125 100.675781 43.78125 98.785156 C 43.78125 97.140625 44.949219 95.753906 46.5 95.417969 C 45.035156 94.898438 43.910156 93.832031 43.210938 92.199219 C 43.203125 92.179688 43.191406 92.160156 43.1875 92.140625 C 42.652344 90.003906 43.597656 87.683594 45.554688 86.175781 C 45.558594 86.167969 45.5625 86.164062 45.570312 86.160156 C 45.574219 86.15625 45.574219 86.148438 45.578125 86.144531 C 45.597656 86.125 45.613281 86.105469 45.636719 86.085938 L 49.808594 82.820312 L 36.796875 49.527344 L 28.542969 48.125 C 28.539062 48.125 28.539062 48.125 28.535156 48.125 C 27.667969 47.984375 27.035156 47.175781 27.109375 46.300781 C 27.183594 45.421875 27.949219 44.734375 28.832031 44.746094 Z M 45.132812 60.960938 L 47.53125 67.105469 L 50.660156 67.105469 L 50.660156 61.101562 Z M 51.855469 61.132812 L 51.855469 67.105469 L 57.628906 67.105469 L 57.628906 61.277344 Z M 58.820312 61.300781 L 58.820312 67.105469 L 64.597656 67.105469 L 64.597656 61.445312 Z M 65.789062 61.476562 L 65.789062 67.105469 L 71.5625 67.105469 L 71.5625 61.621094 Z M 72.757812 61.652344 L 72.757812 67.105469 L 78.53125 67.105469 L 78.53125 61.796875 Z M 79.726562 61.824219 L 79.726562 67.105469 L 83.960938 67.105469 L 84.585938 61.949219 Z M 83.816406 68.292969 L 79.726562 68.292969 L 79.726562 73.691406 L 83.164062 73.691406 Z M 78.53125 68.292969 L 72.757812 68.292969 L 72.757812 73.691406 L 78.53125 73.691406 Z M 71.5625 68.292969 L 65.789062 68.292969 L 65.789062 73.691406 L 71.5625 73.691406 Z M 64.597656 68.292969 L 58.820312 68.292969 L 58.820312 73.691406 L 64.597656 73.691406 Z M 57.628906 68.292969 L 51.855469 68.292969 L 51.855469 73.691406 L 57.628906 73.691406 Z M 50.660156 68.292969 L 47.992188 68.292969 L 50.101562 73.691406 L 50.660156 73.691406 Z M 83.019531 74.878906 L 79.726562 74.878906 L 79.726562 78.75 L 82.578125 78.523438 Z M 78.53125 74.878906 L 72.757812 74.878906 L 72.757812 79.300781 L 78.53125 78.84375 Z M 71.5625 74.878906 L 65.789062 74.878906 L 65.789062 79.855469 L 71.5625 79.402344 Z M 64.59375 74.878906 L 58.820312 74.878906 L 58.820312 80.414062 L 64.59375 79.953125 Z M 57.628906 74.878906 L 51.851562 74.878906 L 51.851562 78.160156 L 52.949219 80.964844 C 53.089844 80.894531 53.246094 80.855469 53.402344 80.839844 L 57.628906 80.503906 Z M 50.660156 74.878906 L 50.570312 74.878906 L 50.660156 75.121094 Z M 79.910156 96.761719 C 78.785156 96.761719 77.886719 97.660156 77.886719 98.785156 C 77.886719 99.910156 78.785156 100.804688 79.910156 100.804688 C 81.039062 100.804688 81.9375 99.910156 81.9375 98.785156 C 81.9375 97.660156 81.039062 96.761719 79.910156 96.761719 Z M 47.226562 96.761719 C 46.101562 96.761719 45.199219 97.660156 45.199219 98.785156 C 45.199219 99.910156 46.101562 100.804688 47.226562 100.804688 C 48.351562 100.804688 49.253906 99.910156 49.253906 98.785156 C 49.253906 97.660156 48.351562 96.761719 47.226562 96.761719 Z M 79.910156 97.722656 C 80.523438 97.722656 81.011719 98.210938 81.011719 98.820312 C 81.011719 99.433594 80.523438 99.914062 79.910156 99.914062 C 79.300781 99.914062 78.808594 99.433594 78.808594 98.820312 C 78.808594 98.210938 79.300781 97.722656 79.910156 97.722656 Z M 47.226562 97.722656 C 47.839844 97.722656 48.328125 98.210938 48.328125 98.820312 C 48.328125 99.433594 47.839844 99.914062 47.226562 99.914062 C 46.613281 99.914062 46.125 99.433594 46.125 98.820312 C 46.125 98.210938 46.613281 97.722656 47.226562 97.722656 Z M 47.226562 97.722656 " fill-opacity="1" fill-rule="nonzero"/></g><g fill="#231f20" fill-opacity="1"><g transform="translate(104.034184, 84.688907)"><g><path d="M 31.3125 -34.21875 L 17.953125 -34.21875 L 17.953125 0 L 14.265625 0 L 14.265625 -34.21875 L 0.890625 -34.21875 L 0.890625 -37.5 L 31.3125 -37.5 Z M 31.3125 -34.21875 "/></g></g></g><g fill="#231f20" fill-opacity="1"><g transform="translate(136.249921, 84.688907)"><g><path d="M 4.703125 0 L 4.703125 -37.5 L 8.390625 -37.5 L 8.390625 0 Z M 4.703125 0 "/></g></g></g><g fill="#231f20" fill-opacity="1"><g transform="translate(149.347458, 84.688907)"><g><path d="M 29.890625 -3.28125 L 29.890625 0 L 4.703125 0 L 4.703125 -37.5 L 29.421875 -37.5 L 29.421875 -34.21875 L 8.390625 -34.21875 L 8.390625 -20.703125 L 26.71875 -20.703125 L 26.71875 -17.59375 L 8.390625 -17.59375 L 8.390625 -3.28125 Z M 29.890625 -3.28125 "/></g></g></g><g fill="#231f20" fill-opacity="1"><g transform="translate(181.510369, 84.688907)"><g><path d="M 8.390625 -30.625 L 8.390625 0 L 4.703125 0 L 4.703125 -37.5 L 7.546875 -37.5 L 32.375 -6.28125 L 32.375 -37.4375 L 36.078125 -37.4375 L 36.078125 0 L 32.84375 0 Z M 8.390625 -30.625 "/></g></g></g><g fill="#231f20" fill-opacity="1"><g transform="translate(222.281744, 84.688907)"><g><path d="M 4.703125 0 L 4.703125 -37.5 L 17.421875 -37.5 C 20.421875 -37.5 23.035156 -37.003906 25.265625 -36.015625 C 27.503906 -35.035156 29.367188 -33.695312 30.859375 -32 C 32.359375 -30.3125 33.488281 -28.332031 34.25 -26.0625 C 35.007812 -23.789062 35.390625 -21.367188 35.390625 -18.796875 C 35.390625 -15.953125 34.960938 -13.375 34.109375 -11.0625 C 33.265625 -8.757812 32.0625 -6.785156 30.5 -5.140625 C 28.9375 -3.503906 27.050781 -2.238281 24.84375 -1.34375 C 22.644531 -0.445312 20.171875 0 17.421875 0 Z M 31.6875 -18.796875 C 31.6875 -21.054688 31.367188 -23.125 30.734375 -25 C 30.097656 -26.882812 29.171875 -28.515625 27.953125 -29.890625 C 26.742188 -31.265625 25.257812 -32.328125 23.5 -33.078125 C 21.738281 -33.835938 19.710938 -34.21875 17.421875 -34.21875 L 8.390625 -34.21875 L 8.390625 -3.28125 L 17.421875 -3.28125 C 19.742188 -3.28125 21.796875 -3.675781 23.578125 -4.46875 C 25.359375 -5.257812 26.847656 -6.347656 28.046875 -7.734375 C 29.242188 -9.128906 30.148438 -10.765625 30.765625 -12.640625 C 31.378906 -14.523438 31.6875 -16.578125 31.6875 -18.796875 Z M 31.6875 -18.796875 "/></g></g></g><g fill="#231f20" fill-opacity="1"><g transform="translate(260.042809, 84.688907)"><g><path d="M 16.3125 -37.5 L 19.4375 -37.5 L 35.015625 0 L 31.109375 0 L 26.25 -11.71875 L 9.40625 -11.71875 L 4.59375 0 L 0.640625 0 Z M 25.40625 -14.625 L 17.84375 -33.171875 L 10.1875 -14.625 Z M 25.40625 -14.625 "/></g></g></g><g fill="#ff7f00" fill-opacity="1"><g transform="translate(295.742031, 84.688907)"><g><path d="M 1.640625 -19.015625 C 1.640625 -21.304688 2.050781 -23.566406 2.875 -25.796875 C 3.707031 -28.035156 4.914062 -30.035156 6.5 -31.796875 C 8.082031 -33.554688 10.015625 -34.976562 12.296875 -36.0625 C 14.585938 -37.15625 17.195312 -37.703125 20.125 -37.703125 C 23.570312 -37.703125 26.550781 -36.945312 29.0625 -35.4375 C 31.582031 -33.925781 33.460938 -31.953125 34.703125 -29.515625 L 29.09375 -25.671875 C 28.601562 -26.722656 28.003906 -27.609375 27.296875 -28.328125 C 26.597656 -29.054688 25.84375 -29.628906 25.03125 -30.046875 C 24.21875 -30.472656 23.367188 -30.78125 22.484375 -30.96875 C 21.609375 -31.164062 20.75 -31.265625 19.90625 -31.265625 C 18.082031 -31.265625 16.488281 -30.894531 15.125 -30.15625 C 13.769531 -29.414062 12.644531 -28.457031 11.75 -27.28125 C 10.851562 -26.101562 10.175781 -24.765625 9.71875 -23.265625 C 9.257812 -21.765625 9.03125 -20.273438 9.03125 -18.796875 C 9.03125 -17.140625 9.289062 -15.546875 9.8125 -14.015625 C 10.34375 -12.484375 11.09375 -11.132812 12.0625 -9.96875 C 13.03125 -8.8125 14.191406 -7.878906 15.546875 -7.171875 C 16.910156 -6.472656 18.398438 -6.125 20.015625 -6.125 C 20.859375 -6.125 21.738281 -6.226562 22.65625 -6.4375 C 23.570312 -6.65625 24.441406 -6.992188 25.265625 -7.453125 C 26.097656 -7.910156 26.863281 -8.5 27.5625 -9.21875 C 28.269531 -9.9375 28.835938 -10.804688 29.265625 -11.828125 L 35.21875 -8.390625 C 34.625 -6.984375 33.769531 -5.742188 32.65625 -4.671875 C 31.550781 -3.597656 30.300781 -2.691406 28.90625 -1.953125 C 27.519531 -1.210938 26.035156 -0.648438 24.453125 -0.265625 C 22.867188 0.117188 21.320312 0.3125 19.8125 0.3125 C 17.132812 0.3125 14.6875 -0.25 12.46875 -1.375 C 10.25 -2.5 8.335938 -3.96875 6.734375 -5.78125 C 5.128906 -7.59375 3.878906 -9.648438 2.984375 -11.953125 C 2.085938 -14.265625 1.640625 -16.617188 1.640625 -19.015625 Z M 1.640625 -19.015625 "/></g></g></g><g fill="#ff7f00" fill-opacity="1"><g transform="translate(331.971529, 84.688907)"><g><path d="M 19.90625 0.265625 C 17.164062 0.265625 14.675781 -0.269531 12.4375 -1.34375 C 10.195312 -2.414062 8.273438 -3.84375 6.671875 -5.625 C 5.078125 -7.40625 3.835938 -9.4375 2.953125 -11.71875 C 2.078125 -14.007812 1.640625 -16.351562 1.640625 -18.75 C 1.640625 -21.25 2.101562 -23.640625 3.03125 -25.921875 C 3.96875 -28.210938 5.253906 -30.238281 6.890625 -32 C 8.523438 -33.757812 10.46875 -35.160156 12.71875 -36.203125 C 14.976562 -37.242188 17.425781 -37.765625 20.0625 -37.765625 C 22.78125 -37.765625 25.253906 -37.207031 27.484375 -36.09375 C 29.722656 -34.988281 31.632812 -33.535156 33.21875 -31.734375 C 34.800781 -29.941406 36.03125 -27.898438 36.90625 -25.609375 C 37.789062 -23.328125 38.234375 -21.003906 38.234375 -18.640625 C 38.234375 -16.140625 37.773438 -13.753906 36.859375 -11.484375 C 35.941406 -9.210938 34.671875 -7.207031 33.046875 -5.46875 C 31.429688 -3.726562 29.5 -2.335938 27.25 -1.296875 C 25 -0.253906 22.550781 0.265625 19.90625 0.265625 Z M 9.03125 -18.75 C 9.03125 -17.125 9.273438 -15.554688 9.765625 -14.046875 C 10.265625 -12.535156 10.976562 -11.195312 11.90625 -10.03125 C 12.84375 -8.875 13.988281 -7.941406 15.34375 -7.234375 C 16.695312 -6.523438 18.238281 -6.171875 19.96875 -6.171875 C 21.726562 -6.171875 23.285156 -6.53125 24.640625 -7.25 C 25.992188 -7.976562 27.132812 -8.941406 28.0625 -10.140625 C 29 -11.335938 29.703125 -12.679688 30.171875 -14.171875 C 30.648438 -15.671875 30.890625 -17.195312 30.890625 -18.75 C 30.890625 -20.363281 30.632812 -21.925781 30.125 -23.4375 C 29.613281 -24.957031 28.890625 -26.296875 27.953125 -27.453125 C 27.023438 -28.617188 25.882812 -29.546875 24.53125 -30.234375 C 23.175781 -30.921875 21.65625 -31.265625 19.96875 -31.265625 C 18.207031 -31.265625 16.640625 -30.898438 15.265625 -30.171875 C 13.890625 -29.453125 12.742188 -28.503906 11.828125 -27.328125 C 10.910156 -26.148438 10.210938 -24.8125 9.734375 -23.3125 C 9.265625 -21.820312 9.03125 -20.300781 9.03125 -18.75 Z M 9.03125 -18.75 "/></g></g></g><g fill="#ff7f00" fill-opacity="1"><g transform="translate(371.897913, 84.688907)"><g><path d="M 34.484375 0 L 34.484375 -24.828125 L 24.828125 -6.34375 L 20.859375 -6.34375 L 11.203125 -24.828125 L 11.203125 0 L 3.90625 0 L 3.90625 -37.5 L 11.71875 -37.5 L 22.8125 -16.15625 L 34.015625 -37.5 L 41.78125 -37.5 L 41.78125 0 Z M 34.484375 0 "/></g></g></g><g fill="#ff7f00" fill-opacity="1"><g transform="translate(417.580867, 84.688907)"><g><path d="M 3.90625 0 L 3.90625 -37.5 L 19.8125 -37.5 C 21.53125 -37.5 23.117188 -37.132812 24.578125 -36.40625 C 26.046875 -35.6875 27.304688 -34.738281 28.359375 -33.5625 C 29.410156 -32.382812 30.234375 -31.046875 30.828125 -29.546875 C 31.429688 -28.046875 31.734375 -26.539062 31.734375 -25.03125 C 31.734375 -23.445312 31.453125 -21.90625 30.890625 -20.40625 C 30.328125 -18.914062 29.535156 -17.585938 28.515625 -16.421875 C 27.492188 -15.265625 26.257812 -14.332031 24.8125 -13.625 C 23.375 -12.914062 21.789062 -12.5625 20.0625 -12.5625 L 11.203125 -12.5625 L 11.203125 0 Z M 11.203125 -18.953125 L 19.640625 -18.953125 C 20.984375 -18.953125 22.101562 -19.5 23 -20.59375 C 23.894531 -21.6875 24.34375 -23.164062 24.34375 -25.03125 C 24.34375 -25.976562 24.203125 -26.832031 23.921875 -27.59375 C 23.640625 -28.351562 23.269531 -28.992188 22.8125 -29.515625 C 22.351562 -30.046875 21.816406 -30.441406 21.203125 -30.703125 C 20.585938 -30.972656 19.960938 -31.109375 19.328125 -31.109375 L 11.203125 -31.109375 Z M 11.203125 -18.953125 "/></g></g></g><g fill="#ff7f00" fill-opacity="1"><g transform="translate(450.483159, 84.688907)"><g><path d="M 3.90625 0 L 3.90625 -37.5 L 11.203125 -37.5 L 11.203125 -6.390625 L 30.3125 -6.390625 L 30.3125 0 Z M 3.90625 0 "/></g></g></g><g fill="#ff7f00" fill-opacity="1"><g transform="translate(481.325765, 84.688907)"><g><path d="M 29.9375 -6.390625 L 29.9375 0 L 3.90625 0 L 3.90625 -37.5 L 29.46875 -37.5 L 29.46875 -31.109375 L 11.203125 -31.109375 L 11.203125 -22.078125 L 26.984375 -22.078125 L 26.984375 -16.15625 L 11.203125 -16.15625 L 11.203125 -6.390625 Z M 29.9375 -6.390625 "/></g></g></g><g fill="#ff7f00" fill-opacity="1"><g transform="translate(513.06619, 84.688907)"><g><path d="M 31.953125 -31.109375 L 19.96875 -31.109375 L 19.96875 0 L 12.734375 0 L 12.734375 -31.109375 L 0.734375 -31.109375 L 0.734375 -37.5 L 31.953125 -37.5 Z M 31.953125 -31.109375 "/></g></g></g><g fill="#ff7f00" fill-opacity="1"><g transform="translate(545.757239, 84.688907)"><g><path d="M 14.578125 -37.5 L 21.015625 -37.5 L 35.28125 0 L 27.78125 0 L 24.296875 -9.34375 L 11.203125 -9.34375 L 7.765625 0 L 0.265625 0 Z M 22.96875 -14.46875 L 17.796875 -29.203125 L 12.40625 -14.46875 Z M 22.96875 -14.46875 "/></g></g></g></svg>