<svg width="204" height="204" viewBox="0 0 204 204" fill="none" xmlns="http://www.w3.org/2000/svg">
<path d="M178.159 50.9018H135.74V36.7339C135.541 31.3028 133.197 26.1721 129.221 22.4667C125.245 18.7613 119.962 16.7835 114.531 16.9668H89.0794C83.6478 16.7835 78.365 18.7613 74.3892 22.4667C70.4135 26.1721 68.0691 31.3028 67.8701 36.7339V50.9018H25.4513C23.2013 50.9018 21.0434 51.7956 19.4524 53.3866C17.8614 54.9776 16.9675 57.1355 16.9675 59.3855C16.9675 61.6356 17.8614 63.7935 19.4524 65.3845C21.0434 66.9755 23.2013 67.8693 25.4513 67.8693H33.935V161.191C33.935 167.941 36.6165 174.414 41.3895 179.187C46.1626 183.96 52.6362 186.642 59.3863 186.642H144.224C150.974 186.642 157.448 183.96 162.221 179.187C166.994 174.414 169.675 167.941 169.675 161.191V67.8693H178.159C180.409 67.8693 182.567 66.9755 184.158 65.3845C185.749 63.7935 186.643 61.6356 186.643 59.3855C186.643 57.1355 185.749 54.9776 184.158 53.3866C182.567 51.7956 180.409 50.9018 178.159 50.9018ZM84.8376 36.7339C84.8376 35.3765 86.6192 33.9343 89.0794 33.9343H114.531C116.991 33.9343 118.773 35.3765 118.773 36.7339V50.9018H84.8376V36.7339Z" fill="#231F20"/>
</svg>
